<svg xmlns="http://www.w3.org/2000/svg" xmlns:svgjs="http://svgjs.dev/svgjs" xmlns:xlink="http://www.w3.org/1999/xlink" version="1.1" viewBox="0 0 1422 800"><defs><filter id="uuunion-blur" width="400%" height="400%" x="-100%" y="-100%" color-interpolation-filters="sRGB"><feGaussianBlur in="SourceGraphic" result="blur" stdDeviation="7.5 0"/><feDropShadow width="100%" height="100%" x="0%" y="0%" dx="10" dy="10" flood-color="hsl(316, 73%, 52%)" flood-opacity=".25" in="blur" stdDeviation="12.308"/></filter><filter id="uuunion-blur2" width="400%" height="400%" x="-100%" y="-100%" color-interpolation-filters="sRGB"><feGaussianBlur in="SourceGraphic" result="blur" stdDeviation="7.5 0"/><feDropShadow width="100%" height="100%" x="0%" y="0%" dx="-10" dy="-10" flood-color="hsl(316, 73%, 52%)" flood-opacity=".25" in="blur" stdDeviation="12.308"/></filter><linearGradient id="uuunion-grad" x1="50%" x2="50%" y1="0%" y2="100%" gradientTransform="rotate(0, 0.5, 0.5)"><stop offset="10%" stop-color="hsl(37, 99%, 67%)"/><stop offset="90%" stop-color="hsl(316, 73%, 52%)"/></linearGradient><linearGradient id="uuunion-grad2" x1="50%" x2="50%" y1="0%" y2="100%" gradientTransform="rotate(135, 0.5, 0.5)"><stop offset="25%" stop-color="hsl(37, 99%, 67%)"/><stop offset="100%" stop-color="hsl(316, 73%, 52%)"/></linearGradient><linearGradient id="uuunion-grad3" x1="50%" x2="50%" y1="0%" y2="100%" gradientTransform="rotate(333, 0.5, 0.5)"><stop offset="0%" stop-color="hsl(37, 99%, 67%)"/><stop offset="75%" stop-color="hsl(316, 73%, 52%)"/></linearGradient></defs><path fill="url(#uuunion-grad)" d="M-135.66 -71.75Q-122.54 -74.62 -109.42 -79.11 -96.3 -83.86 -83.18 -87.45 -70.06 -88.79 -56.93 -87.5 -43.81 -83.95 -30.69 -79.2 -17.57 -74.7 -4.45 -71.79 8.66 -71.35 21.79 -73.5 34.91 -77.61 48.03 -82.44 61.15 -86.53 74.27 -88.65 87.39 -88.18 100.52 -85.24 113.64 -80.73 126.76 -75.99 139.88 -72.46 153 -71.2 166.12 -72.58 179.25 -76.19 192.37 -80.94 205.49 -85.41 218.61 -88.26 231.73 -88.61 244.85 -86.38 257.98 -82.23 271.1 -77.4 284.22 -73.36 297.34 -71.31 310.46 -71.87 323.59 -74.88 336.71 -79.42 349.83 -84.14 362.95 -87.61 376.07 -88.79 389.19 -87.33 402.32 -83.66 415.44 -78.89 428.56 -74.45 441.68 -71.68 454.8 -71.41 467.92 -73.72 481.05 -77.92 494.17 -82.74 507.29 -86.74 520.41 -88.71 533.53 -88.06 546.65 -84.98 559.78 -80.41 572.9 -75.71 586.02 -72.3 599.14 -71.21 612.26 -72.75 625.38 -76.48 638.51 -81.26 651.63 -85.66 664.75 -88.36 677.87 -88.54 690.99 -86.16 704.12 -81.92 717.24 -77.1 730.36 -73.15 743.48 -71.26 756.6 -72 769.72 -75.14 782.85 -79.74 795.97 -84.42 809.09 -87.76 822.21 -88.78 835.33 -87.15 848.45 -83.37 861.58 -78.57 874.7 -74.21 887.82 -71.58 900.94 -71.49 914.06 -73.95 927.18 -78.23 940.31 -83.04 953.43 -86.94 966.55 -88.75 979.67 -87.92 992.79 -84.72 1005.92 -80.09 1019.04 -75.43 1032.16 -72.15 1045.28 -71.23 1058.4 -72.94 1071.52 -76.77 1084.65 -81.58 1097.77 -85.9 1110.89 -88.45 1124.01 -88.46 1137.13 -85.92 1150.25 -81.6 1163.38 -76.8 1176.5 -72.96 1189.62 -71.23 1202.74 -72.14 1215.86 -75.41 1228.99 -80.06 1242.11 -84.69 1255.23 -87.91 1268.35 -88.75 1281.47 -86.95 1294.59 -83.07 1307.72 -78.26 1320.84 -73.97 1333.96 -71.49 1347.08 -71.57 1360.2 -74.19 1373.33 -78.54 1386.45 -83.34 1399.57 -87.13 1412.69 -88.77 1425.81 -87.78 1438.93 -84.44 1452.06 -79.77 1465.18 -75.16 1478.3 -72.01 1491.42 -71.26 1504.54 -73.13 1517.67 -77.07 1532.31 -76.59 1530.3 -56.45 1534.08 -41.61 1544.36 -26.76 1558.92 -11.92 1574.62 2.91 1588.06 17.76 1596.36 32.6 1597.72 47.44 1591.85 62.28 1580.01 77.13 1564.76 91.97 1549.39 106.81 1537.21 121.66 1530.85 136.5 1531.69 151.34 1539.54 166.19 1552.71 181.03 1568.36 195.87 1583.1 210.71 1593.77 225.56 1598.06 240.4 1595.04 255.24 1585.37 270.09 1571.13 284.93 1555.39 299.77 1541.55 314.61 1532.6 329.46 1530.46 344.3 1535.6 359.14 1546.91 373.99 1561.95 388.83 1577.47 403.67 1590.13 418.52 1597.19 433.36 1597.14 448.2 1589.98 463.04 1577.25 477.89 1561.71 492.73 1546.71 507.57 1535.48 522.42 1530.44 537.26 1532.69 552.1 1541.73 566.95 1555.62 581.79 1571.36 596.63 1585.55 611.47 1595.14 626.32 1598.05 641.16 1593.66 656 1582.91 670.85 1568.12 685.69 1552.49 700.53 1539.38 715.38 1531.63 730.22 1530.9 745.06 1537.35 759.9 1549.6 774.75 1564.99 789.59 1580.22 804.43 1591.98 819.28 1597.75 834.12 1596.29 848.96 1587.9 863.81 1574.32 875 1560.74 887.7 1547.17 898.08 1533.59 903.02 1520.02 901.04 1506.44 892.73 1492.87 880.59 1479.29 868.27 1465.71 859.48 1452.14 856.85 1438.56 861.19 1424.99 871.18 1411.41 883.82 1397.83 895.31 1384.26 902.2 1370.68 902.41 1357.11 895.88 1343.53 884.57 1329.95 871.89 1316.38 861.65 1302.8 856.92 1289.23 859.13 1275.65 867.61 1262.07 879.82 1248.5 892.08 1234.92 900.71 1221.35 903.1 1207.77 898.55 1194.19 888.42 1180.62 875.76 1167.04 864.37 1153.47 857.67 1139.89 857.69 1126.32 864.42 1112.74 875.83 1099.16 888.49 1085.59 898.6 1072.01 903.11 1058.44 900.67 1044.86 892.02 1031.28 879.75 1017.71 867.55 1004.13 859.1 990.56 856.93 976.98 861.69 963.4 871.96 949.83 884.65 936.25 895.93 922.68 902.43 909.1 902.18 895.53 895.26 881.95 883.75 868.37 871.11 854.8 861.14 841.22 856.85 827.65 859.51 814.07 868.33 800.49 880.66 786.92 892.79 773.34 901.07 759.77 903.02 746.19 898.04 732.61 887.63 719.04 874.93 705.46 863.75 691.89 857.46 678.31 857.94 664.74 865.05 651.16 876.66 637.58 889.27 624.01 899.09 610.43 903.17 596.86 900.28 583.28 891.29 569.7 878.91 556.13 866.85 542.55 858.74 528.98 857.03 515.4 862.22 501.83 872.76 488.25 885.47 474.67 896.53 461.1 902.63 447.52 901.91 433.95 894.61 420.37 882.91 406.79 870.34 393.22 860.67 379.64 856.81 366.07 859.92 352.49 869.07 338.92 881.5 325.34 893.49 311.76 901.41 298.19 902.9 284.61 897.5 271.04 886.83 257.46 874.11 243.88 863.16 230.31 857.27 216.73 858.22 203.16 865.71 189.58 877.49 176.01 890.03 162.43 899.55 148.85 903.19 135.28 899.86 121.7 890.55 108.13 878.07 94.55 866.17 80.97 858.42 67.4 857.16 53.82 862.77 40.25 873.56 26.67 886.28 13.1 897.11 -0.47 902.8 -14.05 901.63 -27.62 893.95 -41.2 882.08 -54.77 869.58 -68.35 860.21 -81.93 856.8 -95.5 860.35 -109.08 869.82 -122.65 882.34 -144.36 890.33 -152.97 871.3 -151.12 856.09 -147.33 840.88 -142.44 825.67 -137.49 810.46 -133.56 795.24 -131.48 780.03 -131.72 764.82 -134.21 749.61 -138.42 734.4 -143.45 719.19 -148.2 703.98 -151.66 688.77 -153.07 673.56 -152.13 658.35 -149.05 643.14 -144.49 627.93 -139.43 612.72 -134.96 597.51 -132.06 582.29 -131.33 567.08 -132.95 551.87 -136.56 536.66 -141.39 521.45 -146.38 506.24 -150.47 491.03 -152.77 475.82 -152.79 460.61 -150.52 445.4 -146.45 430.19 -141.46 414.98 -136.63 399.77 -132.99 384.56 -131.34 369.35 -132.03 354.13 -134.91 338.92 -139.36 323.71 -144.41 308.5 -148.99 293.29 -152.1 278.08 -153.07 262.87 -151.69 247.66 -148.26 232.45 -143.52 217.24 -138.49 202.03 -134.26 186.82 -131.74 171.61 -131.47 156.4 -133.51 141.18 -137.42 125.97 -142.37 110.76 -147.27 95.55 -151.07 80.34 -152.96 65.13 -152.53 49.92 -149.86 34.71 -145.53 19.5 -140.49 4.29 -135.81 -10.91 -132.51 -26.12 -131.29 -41.33 -132.42 -56.54 -135.66 -71.75"/><path fill="url(#uuunion-grad2)" d="M-135.67 -71.75Q-132.43 -56.54 -131.3 -41.33 -132.52 -26.12 -135.82 -10.91 -140.5 4.29 -145.55 19.5 -149.87 34.71 -152.54 49.92 -152.97 65.13 -151.08 80.34 -147.28 95.55 -142.38 110.77 -137.43 125.98 -133.52 141.19 -131.48 156.4 -131.75 171.61 -134.27 186.82 -138.5 202.03 -143.53 217.24 -148.27 232.45 -151.7 247.66 -153.08 262.87 -152.11 278.08 -149 293.29 -144.42 308.5 -139.37 323.72 -134.92 338.93 -132.04 354.14 -131.35 369.35 -133 384.56 -124.74 403.74 -105.98 395.75 -97.11 390.45 -88.24 386.45 -79.37 384.29 -70.5 384.25 -61.62 386.35 -52.75 390.3 -43.88 395.56 -35.01 401.43 -26.14 407.1 -17.26 411.8 -0.5 415.69 2.46 415.94 14.19 410.51 25.86 402.24 37.46 392.22 48.98 381.91 60.43 372.81 71.8 366.16 83.1 362.69 94.32 362.46 105.47 364.82 116.55 368.64 127.57 372.43 138.53 374.75 149.44 374.48 160.3 371.03 171.13 364.48 181.93 355.58 192.71 345.55 203.48 335.83 214.25 327.81 225.02 322.5 235.81 320.34 246.61 321.11 257.45 323.98 268.32 327.67 279.23 330.77 290.19 331.96 301.2 330.35 312.26 325.66 323.38 318.22 334.56 308.96 345.8 299.17 357.1 290.25 368.45 283.4 379.85 279.4 391.3 278.4 402.8 279.95 414.33 283.05 425.9 286.38 437.48 288.59 449.09 288.58 460.7 285.71 472.3 279.94 483.9 271.84 495.47 262.48 507.01 253.16 518.51 245.18 529.96 239.55 541.35 236.78 552.67 236.77 563.92 238.85 575.08 241.91 586.15 244.67 597.14 245.88 608.02 244.66 618.81 240.62 629.49 233.97 640.08 225.46 650.56 216.25 660.94 207.59 671.24 200.66 681.44 196.23 691.57 194.56 701.62 195.32 711.61 197.68 721.54 200.49 731.43 202.5 741.3 202.64 751.14 200.24 760.99 195.17 770.85 187.86 780.73 179.19 790.66 170.34 800.64 162.51 810.7 156.66 820.84 153.37 831.09 152.64 841.44 153.95 851.92 156.36 862.54 158.71 873.31 159.84 884.23 158.89 895.31 155.4 906.57 149.48 917.99 141.73 929.59 133.13 941.36 124.83 953.31 117.91 965.42 113.16 977.7 110.89 990.13 110.92 1002.71 112.55 1015.42 114.79 1028.26 116.51 1041.2 116.69 1054.23 114.67 1067.34 110.22 1080.49 103.64 1093.69 95.68 1106.89 87.35 1120.08 79.75 1133.25 73.8 1146.36 70.09 1159.39 68.71 1172.33 69.29 1185.15 71.03 1197.83 72.9 1210.35 73.86 1222.7 73.06 1234.85 70.04 1246.79 64.78 1258.51 57.76 1270 49.8 1281.24 41.93 1292.23 35.13 1302.96 30.16 1313.44 27.39 1323.67 26.74 1333.64 27.65 1343.36 29.28 1352.84 30.63 1362.1 30.76 1371.15 29 1379.99 25.09 1388.66 19.2 1397.17 11.94 1405.55 4.18 1413.81 -3.1 1422 -9.04 1406.31 -26.3 1395.2 -43.57 1391.9 -60.83 1397.39 -78.09 1410.05 -95.35 1426.19 -112.62 1426.04 -137.04 1399.99 -133.7 1387.37 -132.17 1374.75 -132.65 1362.14 -135.02 1349.52 -138.67 1336.9 -142.67 1324.28 -145.97 1311.67 -147.74 1299.05 -147.51 1286.43 -145.35 1273.81 -141.81 1261.2 -137.8 1248.58 -134.36 1235.96 -132.37 1223.34 -132.34 1210.73 -134.28 1198.11 -137.7 1185.49 -141.7 1172.87 -145.27 1160.26 -147.48 1147.64 -147.76 1135.02 -146.04 1122.4 -142.77 1109.79 -138.78 1097.17 -135.1 1084.55 -132.69 1071.93 -132.15 1059.32 -133.64 1046.7 -136.76 1034.08 -140.71 1021.46 -144.48 1008.85 -147.1 996.23 -147.88 983.61 -146.64 970.99 -143.68 958.38 -139.78 945.76 -135.93 933.14 -133.13 920.52 -132.1 907.91 -133.1 895.29 -135.87 882.67 -139.71 870.05 -143.62 857.44 -146.6 844.82 -147.88 832.2 -147.12 819.58 -144.54 806.97 -140.78 794.35 -136.82 781.73 -133.68 769.11 -132.16 756.5 -132.66 743.88 -135.05 731.26 -138.72 718.64 -142.71 706.03 -146 693.41 -147.75 680.79 -147.5 668.17 -145.32 655.56 -141.77 642.94 -137.76 630.32 -134.33 617.7 -132.36 605.09 -132.35 592.47 -134.31 579.85 -137.74 567.23 -141.75 554.62 -145.3 542 -147.49 529.38 -147.75 516.76 -146.01 504.15 -142.73 491.53 -138.74 478.91 -135.07 466.29 -132.67 453.68 -132.16 441.06 -133.66 428.44 -136.8 415.82 -140.76 403.21 -144.52 390.59 -147.11 377.97 -147.88 365.35 -146.61 352.74 -143.64 340.12 -139.73 327.5 -135.89 314.88 -133.11 302.27 -132.1 289.65 -133.12 277.03 -135.91 264.41 -139.75 251.8 -143.66 239.18 -146.62 226.56 -147.88 213.94 -147.11 201.33 -144.5 188.71 -140.74 176.09 -136.78 163.48 -133.65 150.86 -132.16 138.24 -132.68 125.62 -135.09 113.01 -138.76 100.39 -142.75 87.77 -146.03 75.15 -147.75 62.54 -147.48 49.92 -145.29 37.3 -141.73 24.68 -137.72 12.07 -134.3 -0.54 -132.35 -13.16 -132.36 -25.78 -134.34 -38.39 -137.78 -51.01 -141.79 -63.63 -145.33 -76.25 -147.5 -88.86 -147.74 -101.48 -145.99 -114.1 -142.69 -126.72 -138.7 -139.33 -135.04 -151.95 -132.66 -164.57 -132.17 -158.75 -116.87 -151.32 -101.7 -143.26 -86.66 -135.67 -71.75" filter="url(#uuunion-blur)"/><path fill="url(#uuunion-grad3)" d="M1405.59 306.61Q1414.35 305.23 1423.11 305.86 1431.87 308.4 1440.63 312.52 1449.39 317.64 1458.15 323.09 1466.91 328.12 1475.67 332.05 1484.43 334.34 1493.19 334.69 1501.95 333.04 1510.71 329.63 1519.47 324.91 1528.23 319.53 1535.32 320.59 1530.46 344.3 1537.11 361.62 1551.66 378.93 1569.86 396.25 1586.42 413.57 1596.49 430.89 1597.14 448.2 1588.18 465.52 1572.23 482.84 1553.93 500.15 1538.63 517.47 1530.78 534.79 1532.69 552.1 1543.78 569.42 1560.83 586.74 1578.86 604.05 1592.61 621.37 1598.08 638.69 1593.66 656 1580.65 673.32 1562.84 690.64 1545.42 707.95 1533.48 725.27 1530.5 742.59 1537.35 759.9 1552.03 777.22 1570.26 794.54 1586.71 811.86 1596.6 829.17 1597.04 846.49 1587.9 863.81 1575.44 873.97 1562.99 885.66 1550.54 895.91 1538.09 902.12 1525.63 902.71 1513.18 897.53 1500.73 887.89 1488.28 876.25 1475.82 865.56 1463.37 858.53 1450.92 856.96 1438.47 861.24 1426.01 870.28 1413.56 881.79 1401.11 892.85 1388.66 900.63 1376.2 903.18 1363.75 899.84 1351.3 891.45 1338.85 880.16 1326.39 868.82 1313.94 860.32 1301.49 856.82 1289.04 859.21 1276.58 866.87 1264.13 877.87 1251.68 889.41 1239.22 898.56 1226.77 902.99 1214.32 901.58 1201.87 894.68 1189.41 884.06 1176.96 872.4 1164.51 862.68 1152.06 857.35 1139.6 857.77 1127.15 863.84 1114.7 874.01 1102.25 885.71 1089.79 895.95 1077.34 902.14 1064.89 902.7 1052.44 897.5 1039.98 887.85 1027.53 876.2 1015.08 865.52 1002.63 858.52 990.17 856.97 977.72 861.27 965.27 870.33 952.82 881.84 940.36 892.89 927.91 900.66 915.46 903.18 903.01 899.81 890.55 891.41 878.1 880.11 865.65 868.78 853.19 860.3 840.74 856.82 828.29 859.23 815.84 866.92 803.38 877.92 790.93 889.46 778.48 898.59 766.03 902.99 753.57 901.56 741.12 894.65 728.67 884.01 716.22 872.36 703.76 862.64 691.31 857.34 678.86 857.79 666.41 863.88 653.95 874.06 641.5 885.76 629.05 895.99 616.6 902.15 604.14 902.69 591.69 897.47 579.24 887.8 566.79 876.15 554.33 865.48 541.88 858.5 529.43 856.97 516.98 861.3 504.52 870.37 492.07 881.89 479.62 892.93 467.17 900.68 454.71 903.18 442.26 899.79 429.81 891.37 417.35 880.06 404.9 868.74 392.45 860.27 380 856.82 367.54 859.25 355.09 866.96 342.64 877.97 330.19 889.5 317.73 898.62 305.28 903 292.83 901.54 280.38 894.61 267.92 883.96 255.47 872.31 243.02 862.61 230.57 857.32 218.11 857.8 205.66 863.91 193.21 874.11 180.76 885.8 168.3 896.02 155.85 902.17 143.4 902.68 130.95 897.43 118.49 887.75 106.04 876.1 93.59 865.44 81.14 858.48 68.68 856.98 56.23 861.33 43.78 870.42 31.33 881.94 18.87 892.97 -0.46 896.86 -8.08 882.88 -8.11 872.73 -7.46 862.58 -6.18 852.43 -4.39 842.28 -0.91 827.06 0.94 822 14.7 812.75 28.25 798.51 41.56 781.43 54.63 764.39 67.44 750.25 80.01 741.06 92.35 737.56 104.5 738.97 116.49 743.22 128.37 747.52 140.19 749.08 151.99 745.86 163.81 737.1 175.69 723.52 187.67 707.1 199.77 690.54 212.01 676.57 224.38 667.21 236.89 663.23 249.52 663.98 262.25 667.58 275.05 671.4 287.88 672.76 300.7 669.7 313.49 661.41 326.2 648.47 338.8 632.7 351.27 616.63 363.59 602.87 375.76 593.37 387.78 588.95 399.66 589.08 411.43 592.02 423.12 595.33 434.76 596.48 446.41 593.53 458.11 585.66 469.93 573.34 481.89 558.22 494.06 542.67 506.46 529.15 519.13 519.55 532.08 514.73 545.32 514.24 558.83 516.54 572.59 519.32 586.57 520.21 600.71 517.34 614.94 509.86 629.21 498.14 643.43 483.67 657.52 468.65 671.41 455.4 685.03 445.75 698.3 440.55 711.18 439.48 723.62 441.13 735.6 443.38 747.12 443.98 758.2 441.15 768.88 434.01 779.19 422.86 789.23 409.03 799.08 394.56 808.23 387.83 817.37 382.88 826.49 380.3 835.59 380.3 844.68 382.67 853.76 386.82 862.82 391.87 871.87 396.81 880.92 400.63 889.95 402.52 898.98 401.98 908 398.89 917.02 393.56 926.04 386.65 935.05 379.09 944.07 371.89 953.09 366.01 962.11 362.2 971.14 360.87 980.17 362.03 989.21 365.27 998.27 369.87 1007.33 374.88 1016.41 379.29 1025.5 382.18 1034.61 382.9 1043.74 381.12 1052.88 376.93 1062.05 370.83 1071.25 363.6 1080.46 356.2 1089.7 349.63 1098.97 344.75 1108.27 342.14 1117.6 342.01 1126.96 344.18 1136.35 348.09 1145.78 352.9 1155.24 357.63 1164.74 361.32 1174.28 363.16 1183.86 362.66 1193.47 359.72 1203.13 354.6 1212.83 347.94 1222.57 340.61 1232.36 333.61 1242.18 327.85 1252.06 324.07 1261.97 322.66 1271.93 323.65 1281.94 326.67 1292 331.02 1302.1 335.8 1312.24 340.03 1322.43 342.83 1332.67 343.54 1342.95 341.86 1353.28 337.86 1363.65 331.99 1374.07 325 1384.53 317.82 1395.04 311.41 1405.59 306.61" filter="url(#uuunion-blur2)"/></svg>