<svg xmlns="http://www.w3.org/2000/svg" xmlns:svgjs="http://svgjs.dev/svgjs" xmlns:xlink="http://www.w3.org/1999/xlink" version="1.1" viewBox="0 0 800 800"><defs><filter id="uuunion-blur" width="400%" height="400%" x="-100%" y="-100%" color-interpolation-filters="sRGB"><feGaussianBlur in="SourceGraphic" result="blur" stdDeviation="7.5 0"/><feDropShadow width="100%" height="100%" x="0%" y="0%" dx="10" dy="10" flood-color="hsl(167, 52%, 78%)" flood-opacity=".25" in="blur" stdDeviation="12.308"/></filter><filter id="uuunion-blur2" width="400%" height="400%" x="-100%" y="-100%" color-interpolation-filters="sRGB"><feGaussianBlur in="SourceGraphic" result="blur" stdDeviation="7.5 0"/><feDropShadow width="100%" height="100%" x="0%" y="0%" dx="-10" dy="-10" flood-color="hsl(167, 52%, 78%)" flood-opacity=".25" in="blur" stdDeviation="12.308"/></filter><linearGradient id="uuunion-grad" x1="50%" x2="50%" y1="0%" y2="100%" gradientTransform="rotate(0, 0.5, 0.5)"><stop offset="10%" stop-color="hsl(1.4, 100%, 67%)"/><stop offset="90%" stop-color="hsl(167, 52%, 78%)"/></linearGradient><linearGradient id="uuunion-grad2" x1="50%" x2="50%" y1="0%" y2="100%" gradientTransform="rotate(135, 0.5, 0.5)"><stop offset="25%" stop-color="hsl(1.4, 100%, 67%)"/><stop offset="100%" stop-color="hsl(167, 52%, 78%)"/></linearGradient><linearGradient id="uuunion-grad3" x1="50%" x2="50%" y1="0%" y2="100%" gradientTransform="rotate(333, 0.5, 0.5)"><stop offset="0%" stop-color="hsl(1.4, 100%, 67%)"/><stop offset="75%" stop-color="hsl(167, 52%, 78%)"/></linearGradient></defs><path fill="url(#uuunion-grad)" d="M-78.94 -80.25Q-64.32 -77.64 -49.7 -75.24 -35.07 -73.26 -20.45 -71.89 -5.83 -71.24 8.79 -71.37 23.41 -72.27 38.03 -73.86 52.65 -76 67.28 -78.5 81.9 -81.13 96.52 -83.66 111.14 -85.86 125.77 -87.54 140.39 -88.54 155.01 -88.78 169.63 -88.24 184.26 -86.96 198.88 -85.05 213.5 -82.7 228.12 -80.1 242.75 -77.5 257.37 -75.12 271.99 -73.17 286.62 -71.83 301.24 -71.23 315.86 -71.4 330.48 -72.34 345.11 -73.97 359.73 -76.14 374.35 -78.65 388.97 -81.28 403.6 -83.79 418.22 -85.97 432.84 -87.61 447.46 -88.57 462.09 -88.77 476.71 -88.18 491.33 -86.86 505.96 -84.93 520.58 -82.56 535.2 -79.96 549.82 -77.36 564.45 -74.99 579.07 -73.08 593.69 -71.78 608.31 -71.21 622.94 -71.43 637.56 -72.42 652.18 -74.08 666.8 -76.27 681.43 -78.79 696.05 -81.42 710.67 -83.92 725.3 -86.08 739.92 -87.68 754.54 -88.61 769.16 -88.76 783.79 -88.13 798.41 -86.77 813.03 -84.81 827.65 -82.42 842.28 -79.81 856.9 -77.22 855.94 -62.15 857.87 -47.07 862.47 -32 869.19 -16.93 877.2 -1.86 885.55 13.2 893.23 28.27 899.32 43.34 903.08 58.41 904.06 73.48 902.14 88.56 897.55 103.63 890.85 118.7 882.84 133.77 874.49 148.84 866.8 163.91 860.7 178.98 856.93 194.05 855.93 209.12 857.83 224.19 862.41 239.27 869.1 254.34 877.1 269.41 885.45 284.48 893.15 299.55 899.26 314.62 903.05 329.69 904.06 344.76 902.18 359.83 897.62 374.9 890.94 389.98 882.94 405.05 874.59 420.12 866.88 435.19 860.76 450.26 856.96 465.33 855.93 480.4 857.8 495.47 862.34 510.54 869.01 525.62 877 540.69 885.36 555.76 893.06 570.83 899.2 585.9 903.02 600.97 904.07 616.04 902.21 631.11 897.69 646.18 891.03 661.25 883.04 676.33 874.68 691.4 866.97 706.47 860.82 721.54 856.99 736.61 855.92 751.68 857.76 766.75 862.27 781.82 868.92 796.89 876.9 811.97 885.26 827.04 892.98 842.11 899.14 857.18 895.83 876.37 873.28 873.61 857.89 867.3 842.5 862.13 827.1 858.56 811.71 856.89 796.32 857.29 780.92 859.72 765.53 863.96 750.14 869.64 734.74 876.23 719.35 883.17 703.96 889.82 688.56 895.59 673.17 899.97 657.78 902.56 642.38 903.14 626.99 901.66 611.6 898.23 596.2 893.18 580.81 886.95 565.42 880.1 550.02 873.24 534.63 866.98 519.24 861.89 503.84 858.41 488.45 856.86 473.06 857.38 457.66 859.92 442.27 864.25 426.88 869.99 411.48 876.62 396.09 883.55 380.7 890.17 365.3 895.88 349.91 900.17 334.52 902.65 319.12 903.11 303.73 901.51 288.34 897.99 272.94 892.86 257.55 886.58 242.16 879.71 226.76 872.86 211.37 866.66 195.98 861.64 180.58 858.27 165.19 856.83 149.8 857.47 134.4 860.12 119.01 864.54 103.62 870.34 88.22 877.01 72.83 883.94 57.44 890.52 42.04 896.16 26.65 900.35 11.26 902.73 -4.13 903.08 -19.52 901.36 -34.91 897.74 -50.31 892.53 -65.7 886.2 -81.09 879.32 -81.04 864.32 -80.87 849.33 -80.59 834.34 -80.24 819.34 -79.85 804.35 -79.49 789.36 -79.19 774.36 -78.98 759.37 -78.9 744.38 -78.94 729.38 -79.12 714.39 -79.4 699.4 -79.75 684.4 -80.13 669.41 -80.5 654.42 -80.8 639.42 -81.01 624.43 -81.09 609.44 -81.05 594.44 -80.87 579.45 -80.59 564.46 -80.24 549.46 -79.86 534.47 -79.49 519.48 -79.19 504.48 -78.98 489.49 -78.9 474.49 -78.94 459.5 -79.12 444.51 -79.4 429.51 -79.75 414.52 -80.13 399.53 -80.49 384.53 -80.8 369.54 -81.01 354.55 -81.09 339.55 -81.05 324.56 -80.87 309.57 -80.6 294.57 -80.24 279.58 -79.86 264.59 -79.5 249.59 -79.19 234.6 -78.98 219.61 -78.9 204.61 -78.94 189.62 -79.11 174.63 -79.39 159.63 -79.74 144.64 -80.12 129.65 -80.49 114.65 -80.8 99.66 -81.01 84.67 -81.09 69.67 -81.05 54.68 -80.88 39.69 -80.6 24.69 -80.25 9.7 -79.87 -5.28 -79.5 -20.28 -79.2 -35.27 -78.99 -50.27 -78.9 -65.26 -78.94 -80.25"/><path fill="url(#uuunion-grad2)" d="M-78.94 -80.25Q-78.9 -65.26 -78.99 -50.27 -79.2 -35.27 -79.5 -20.28 -79.87 -5.28 -80.25 9.7 -80.6 24.69 -80.88 39.69 -81.05 54.68 -81.09 69.67 -81.01 84.67 -80.8 99.66 -80.49 114.65 -80.12 129.65 -79.74 144.64 -79.39 159.63 -79.11 174.63 -78.94 189.62 -78.9 204.61 -78.98 219.61 -79.19 234.6 -79.5 249.59 -79.86 264.59 -80.24 279.58 -80.6 294.57 -80.87 309.57 -81.05 324.56 -81.09 339.55 -81.01 354.55 -80.8 369.54 -80.49 384.53 -80.13 399.53 -70.1 402.71 -60.07 405.79 -50.03 408.64 -40 411.14 -29.97 413.2 -19.94 414.73 -1.13 415.91 2.11 415.98 14.82 408.99 27.61 401.07 40.47 392.33 53.39 382.94 66.35 373.1 79.33 363.03 92.3 352.98 105.26 343.17 118.16 333.83 131 325.13 143.74 317.23 156.37 310.21 168.88 304.11 181.24 298.91 193.45 294.53 205.51 290.85 217.4 287.7 229.15 284.88 240.74 282.18 252.21 279.37 263.57 276.25 274.83 272.63 286.04 268.34 297.21 263.29 308.38 257.4 319.59 250.67 330.86 243.13 342.25 234.88 353.77 226.05 365.46 216.8 377.36 207.34 389.48 197.85 401.86 188.54 414.49 179.59 427.4 171.17 440.59 163.4 454.05 156.37 467.77 150.11 481.74 144.61 495.93 139.82 510.31 135.63 524.85 131.9 539.49 128.49 554.21 125.19 568.94 121.84 583.63 118.26 598.24 114.27 612.7 109.76 626.97 104.62 641 98.79 654.75 92.26 668.17 85.06 681.23 77.25 693.9 68.95 706.17 60.28 718.03 51.41 729.48 42.5 740.52 33.71 751.18 25.2 761.48 17.1 771.47 9.51 781.17 2.52 790.66 -3.83 800 -9.57 791.29 -26.82 784 -44.07 779.33 -61.32 778.03 -78.57 780.32 -95.81 785.83 -113.06 793.65 -130.31 802.5 -147.56 787.55 -147.89 772.6 -147.53 757.65 -146.5 742.7 -144.9 727.75 -142.87 712.8 -140.58 697.85 -138.24 682.9 -136.05 667.94 -134.22 652.99 -132.89 638.04 -132.19 623.09 -132.18 608.14 -132.85 593.19 -134.16 578.24 -135.98 563.29 -138.16 548.34 -140.5 533.39 -142.79 518.44 -144.84 503.49 -146.46 488.53 -147.51 473.58 -147.89 458.63 -147.58 443.68 -146.6 428.73 -145.04 413.78 -143.03 398.83 -140.76 383.88 -138.41 368.93 -136.21 353.98 -134.34 339.03 -132.97 324.08 -132.22 309.12 -132.15 294.17 -132.78 279.22 -134.04 264.27 -135.83 249.32 -137.99 234.37 -140.32 219.42 -142.62 204.47 -144.7 189.52 -146.35 174.57 -147.45 159.62 -147.89 144.67 -147.63 129.71 -146.7 114.76 -145.18 99.81 -143.2 84.86 -140.93 69.91 -138.59 54.96 -136.37 40.01 -134.47 25.06 -133.05 10.11 -132.25 -4.83 -132.13 -19.78 -132.71 -34.73 -133.93 -49.69 -135.68 -64.64 -137.82 -79.59 -140.14 -94.54 -142.46 -109.49 -144.55 -124.44 -146.25 -133.65 -134.02 -115.85 -115.8 -106.49 -107.16 -97.22 -98.33 -88.04 -89.34 -78.94 -80.25" filter="url(#uuunion-blur)"/><path fill="url(#uuunion-grad3)" d="M802.68 384.67Q812.71 385.89 822.75 387.68 832.78 389.95 842.81 392.62 852.84 395.59 862.87 398.74 872.91 401.93 882.94 405.05 874.59 420.12 866.88 435.19 860.76 450.26 856.96 465.33 855.93 480.4 857.8 495.47 862.34 510.54 869.01 525.62 877 540.69 885.36 555.76 893.06 570.83 899.2 585.9 903.02 600.97 904.07 616.04 902.21 631.11 897.69 646.18 891.03 661.25 883.04 676.33 874.68 691.4 866.97 706.47 860.82 721.54 856.99 736.61 855.92 751.68 857.76 766.75 862.27 781.82 868.92 796.89 876.9 811.97 885.26 827.04 892.98 842.11 899.14 857.18 896.47 876.65 875.82 874.72 861.69 868.78 847.56 863.68 833.44 859.81 819.31 857.46 805.18 856.81 791.06 857.9 776.93 860.66 762.8 864.88 748.68 870.23 734.55 876.32 720.42 882.69 706.3 888.85 692.17 894.34 678.05 898.76 663.92 901.76 649.79 903.12 635.67 902.74 621.54 900.65 607.41 897 593.29 892.07 579.16 886.23 565.03 879.92 550.91 873.62 536.78 867.8 522.65 862.89 508.53 859.27 494.4 857.22 480.27 856.88 466.15 858.28 452.02 861.31 437.89 865.76 423.77 871.27 409.64 877.45 395.51 883.81 381.39 889.89 367.26 895.22 353.13 899.41 339.01 902.13 324.88 903.19 310.75 902.49 296.63 900.11 282.5 896.21 268.37 891.09 254.25 885.13 240.12 878.79 225.99 872.53 211.87 866.84 197.74 862.14 183.61 858.79 169.49 857.03 155.36 857 141.23 858.7 127.11 862.01 112.98 866.67 98.85 872.34 84.73 878.58 70.6 884.93 56.47 890.9 42.35 896.06 28.22 900 7.02 897.74 -0.11 882.89 -0.22 872.74 -0.38 862.59 -0.57 852.44 -0.78 842.29 -0.87 827.07 -0.24 822 11.99 814.97 24.15 806.64 36.25 797.14 48.29 786.68 60.31 775.53 72.33 764.01 84.35 752.44 96.42 741.15 108.54 730.46 120.75 720.62 133.06 711.86 145.48 704.33 158.04 698.09 170.75 693.12 183.61 689.35 196.62 686.6 209.78 684.64 223.08 683.21 236.52 682.01 250.07 680.7 263.72 679 277.43 676.62 291.18 673.33 304.95 668.96 318.68 663.39 332.36 656.6 345.94 648.63 359.39 639.6 372.68 629.7 385.78 619.15 398.66 608.23 411.3 597.23 423.69 586.45 435.81 576.17 447.66 566.63 459.24 558.03 470.56 550.5 481.63 544.11 492.48 538.86 503.14 534.68 513.64 531.43 524.01 528.91 534.32 526.88 544.6 525.07 554.9 523.22 565.28 521.04 575.79 518.29 586.48 514.76 597.4 510.29 608.59 504.77 620.1 498.17 631.96 490.54 644.19 481.95 656.81 472.57 669.84 462.6 683.28 452.29 697.12 441.87 711.35 431.62 725.93 421.77 740.83 412.56 756.01 404.14 771.42 396.66 794.84 387.42 802.68 384.67" filter="url(#uuunion-blur2)"/></svg>